<svg class="clock" viewBox="0 0 48 48">
  <g fill="#37474F">
    <path d="M38.5,44.6l-4-4l2.1-2.1l4,4c0.6,0.6,0.6,1.5,0,2.1l0,0C40.1,45.1,39.1,45.1,38.5,44.6z"/>
    <path d="M9.5,44.6l4-4l-2.1-2.1l-4,4c-0.6,0.6-0.6,1.5,0,2.1l0,0C7.9,45.1,8.9,45.1,9.5,44.6z"/>
  </g>
  <circle fill="#C62828" cx="24" cy="24" r="20"/>
  <circle fill="#eee" cx="24" cy="24" r="16"/>
  <line x1="14" y1="14" x2="15" y2="15" transform="rotate( 30 24 24 )" style="stroke: #c0c0c0"></line>
  <line x1="14" y1="14" x2="15" y2="15" transform="rotate( 60 24 24 )" style="stroke: #c0c0c0"></line>
  <line x1="14" y1="14" x2="15" y2="15" transform="rotate( 90 24 24 )" style="stroke: #c0c0c0"></line>
  <line x1="14" y1="14" x2="15" y2="15" transform="rotate( 120 24 24 )" style="stroke: #c0c0c0"></line>
  <line x1="14" y1="14" x2="15" y2="15" transform="rotate( 150 24 24 )" style="stroke: #c0c0c0"></line>
  <line x1="14" y1="14" x2="15" y2="15" transform="rotate( 180 24 24 )" style="stroke: #c0c0c0"></line>
  <line x1="14" y1="14" x2="15" y2="15" transform="rotate( 210 24 24 )" style="stroke: #c0c0c0"></line>
  <line x1="14" y1="14" x2="15" y2="15" transform="rotate( 240 24 24 )" style="stroke: #c0c0c0"></line>
  <line x1="14" y1="14" x2="15" y2="15" transform="rotate( 270 24 24 )" style="stroke: #c0c0c0"></line>
  <line x1="14" y1="14" x2="15" y2="15" transform="rotate( 300 24 24 )" style="stroke: #c0c0c0"></line>
  <line x1="14" y1="14" x2="15" y2="15" transform="rotate( 330 24 24 )" style="stroke: #c0c0c0"></line>
  <line x1="14" y1="14" x2="15" y2="15" transform="rotate( 360 24 24 )" style="stroke: #c0c0c0"></line>
  <rect class="clock__arrow" data-js="clock-arrow-hour" x="23.5" y="14" width="1.5" height="9.2" fill="#222"/>
  <rect class="clock__arrow" data-js="clock-arrow-minute" x="23.5" y="11" width="1" height="13" fill="#222"/>
  <rect class="clock__arrow" data-js="clock-arrow-second" x="23.5" y="11" width=".5" height="13" fill="#E53935"/>
  <circle cx="24" cy="24" r="2" fill="#222"/>
  <circle fill="#C62828" cx="24" cy="24" r="1"/>
  <rect x="22" y="1" fill="#37474F" width="4" height="3"/>
  <g fill="#37474F">
    <path d="M44.4,16.2c2.5-3.5,2.1-8.4-1-11.5c-3.1-3.1-8-3.5-11.5-1L44.4,16.2z"/>
    <path d="M3.6,16.2c-2.5-3.5-2.1-8.4,1-11.5c3.1-3.1,8-3.5,11.5-1L3.6,16.2z"/>
  </g>
</svg>
